<svg xmlns="http://www.w3.org/2000/svg" data-name="Layer 1" viewBox="0 0 512 512"><path d="M387.4 258.9c9.2 0 17-3.1 23.5-9.4 6.5-6.3 9.7-16.1 9.7-29.4v-56.2h52.6c13.3 0 23.1-3.1 29.4-9.4 6.3-6.3 9.4-14.2 9.4-23.7v-4.1c0-9.5-3.2-17.4-9.4-23.7-6.3-6.3-16.1-9.4-29.4-9.4h-52.6V39c0-12.9-3.2-22.6-9.7-29.1-6.5-6.5-14.3-9.7-23.5-9.7h-7.7c-9.9 0-18 3.2-24.3 9.7-6.3 6.5-9.4 16.2-9.4 29.1v54.6h-52.1c-13.3 0-23.1 3.2-29.4 9.4-6.3 6.3-9.4 14.2-9.4 23.7v4.1c0 9.5 3.1 17.5 9.4 23.7 6.3 6.3 16.1 9.4 29.4 9.4H346v56.2c0 13.3 3.1 23.1 9.4 29.4 6.3 6.3 14.4 9.4 24.3 9.4h7.7Z" style="fill:#262d56;stroke-width:0"/><path d="M93.1 328.6c6.5 0 12-2.2 16.5-6.6 4.5-4.4 6.8-11.3 6.8-20.7v-39.5h37c9.3 0 16.2-2.2 20.7-6.6 4.4-4.4 6.6-10 6.6-16.7v-2.9c0-6.7-2.2-12.3-6.6-16.7-4.4-4.4-11.3-6.6-20.7-6.6h-37v-38.4c0-9.1-2.3-15.9-6.8-20.5-4.6-4.5-10.1-6.8-16.5-6.8h-5.4c-7 0-12.6 2.3-17.1 6.8-4.4 4.6-6.6 11.4-6.6 20.5v38.4H27.3c-9.3 0-16.2 2.2-20.7 6.6-4.4 4.4-6.6 10-6.6 16.7v2.9c0 6.7 2.2 12.3 6.6 16.7 4.4 4.4 11.3 6.6 20.7 6.6H64v39.5c0 9.3 2.2 16.2 6.6 20.7 4.4 4.4 10.1 6.6 17.1 6.6h5.4Z" style="fill:#e94b5c;stroke-width:0"/><path d="M280.8 511.6c7.8 0 14.4-2.7 19.9-8 5.5-5.3 8.2-13.6 8.2-24.8v-47.5h44.5c11.2 0 19.5-2.7 24.8-8s8-12 8-20.1v-3.5c0-8.1-2.7-14.7-8-20.1-5.3-5.3-13.6-8-24.8-8h-44.5v-46.2c0-10.9-2.7-19.1-8.2-24.6-5.5-5.5-12.1-8.2-19.9-8.2h-6.5c-8.4 0-15.2 2.7-20.5 8.2-5.3 5.5-8 13.7-8 24.6v46.2h-44c-11.2 0-19.5 2.7-24.8 8-5.3 5.3-8 12-8 20.1v3.5c0 8.1 2.7 14.8 8 20.1 5.3 5.3 13.6 8 24.8 8h44v47.5c0 11.2 2.7 19.5 8 24.8 5.3 5.3 12.2 8 20.5 8h6.5Z" style="stroke-width:0;fill:#40a06e"/></svg>
